<svg width="312" height="312" viewBox="0 0 312 312" fill="none" xmlns="http://www.w3.org/2000/svg">
<path d="M176.404 1.40633C174.938 2.20633 153.338 23.273 128.404 48.073L83.0709 93.1397L50.4042 98.473C32.4042 101.54 15.6042 104.473 13.0709 105.273C2.53756 108.206 -2.92911 119.806 1.60422 129.406C2.80422 131.94 20.5376 150.74 41.0709 171.273L78.4042 208.606L42.4042 244.606L6.40422 280.74V287.806C6.40422 294.34 6.80422 295.406 11.6042 300.073C16.2709 304.873 17.3376 305.273 23.8709 305.273H30.9376L67.0709 269.273L103.071 233.273L140.404 270.606C160.938 291.14 179.738 308.873 182.271 310.073C191.871 314.606 203.471 309.14 206.404 298.606C207.204 296.073 210.138 279.273 213.204 261.273L218.538 228.606L264.404 182.606C294.538 152.34 310.538 135.406 311.071 132.873C313.604 122.606 314.138 123.273 252.671 61.4063C220.004 28.7397 193.204 2.873 190.804 1.80633C185.738 -0.460335 180.138 -0.593669 176.404 1.40633ZM226.404 85.9397L268.404 127.94L226.938 169.54C201.471 195.14 185.204 212.606 184.671 214.606C184.271 216.473 182.671 226.34 180.938 236.606C179.338 246.873 177.738 255.54 177.471 255.94C176.938 256.606 55.7376 135.806 55.7376 134.606C55.7376 134.073 64.5376 132.34 75.4709 130.74C86.2709 129.006 96.9376 126.74 99.0709 125.806C101.338 124.74 121.071 105.94 143.071 83.9397C165.071 61.9397 183.338 43.9397 183.738 43.9397C184.138 43.9397 203.338 62.873 226.404 85.9397Z" fill="black"/>
</svg>