<svg width="210" height="202" viewBox="0 0 210 202" fill="none" xmlns="http://www.w3.org/2000/svg">
<path d="M207.92 189C192.69 162.67 169.22 143.79 141.83 134.84C155.378 126.775 165.905 114.485 171.792 99.8581C177.68 85.2312 178.603 69.0761 174.421 53.8737C170.238 38.6712 161.181 25.262 148.64 15.7054C136.099 6.14866 120.767 0.9729 105 0.9729C89.2327 0.9729 73.9013 6.14866 61.3602 15.7054C48.8192 25.262 39.7619 38.6712 35.5794 53.8737C31.3968 69.0761 32.3203 85.2312 38.2079 99.8581C44.0955 114.485 54.6217 126.775 68.17 134.84C40.78 143.78 17.31 162.66 2.07999 189C1.52148 189.911 1.15102 190.924 0.99048 191.98C0.829935 193.036 0.882555 194.114 1.14523 195.15C1.40791 196.185 1.87533 197.158 2.51991 198.009C3.16449 198.861 3.97317 199.576 4.89824 200.11C5.82331 200.644 6.84604 200.988 7.90607 201.121C8.9661 201.253 10.042 201.172 11.0702 200.882C12.0984 200.593 13.0582 200.1 13.8929 199.433C14.7275 198.766 15.4202 197.939 15.93 197C34.77 164.44 68.07 145 105 145C141.93 145 175.23 164.44 194.07 197C194.58 197.939 195.272 198.766 196.107 199.433C196.942 200.1 197.902 200.593 198.93 200.882C199.958 201.172 201.034 201.253 202.094 201.121C203.154 200.988 204.177 200.644 205.102 200.11C206.027 199.576 206.835 198.861 207.48 198.009C208.125 197.158 208.592 196.185 208.855 195.15C209.117 194.114 209.17 193.036 209.009 191.98C208.849 190.924 208.478 189.911 207.92 189ZM49 73.0001C49 61.9244 52.2843 51.0973 58.4377 41.8882C64.591 32.679 73.3371 25.5014 83.5697 21.2628C93.8024 17.0243 105.062 15.9154 115.925 18.0761C126.788 20.2369 136.766 25.5704 144.598 33.4021C152.43 41.2339 157.763 51.2121 159.924 62.0751C162.085 72.938 160.976 84.1977 156.737 94.4304C152.499 104.663 145.321 113.409 136.112 119.562C126.903 125.716 116.076 129 105 129C90.1527 128.984 75.9182 123.079 65.4196 112.581C54.921 102.082 49.0159 87.8474 49 73.0001Z" fill="black"/>
</svg>
